<svg width="32" height="32" viewBox="0 0 32 32" fill="none" xmlns="http://www.w3.org/2000/svg">
<circle cx="16" cy="16" r="16" fill="#2F89CE"/>
<path d="M7.47954 16.3013L11.158 17.6729L12.592 22.2866C12.6543 22.5983 13.0284 22.6607 13.2778 22.4737L15.3352 20.7903C15.5223 20.6033 15.834 20.6033 16.0834 20.7903L19.7619 23.4712C20.0113 23.6582 20.3853 23.5335 20.4477 23.2218L23.191 10.129C23.2533 9.81724 22.9416 9.50551 22.6298 9.6302L7.47954 15.4908C7.10545 15.6155 7.10545 16.1766 7.47954 16.3013ZM12.405 16.9871L19.6372 12.5605C19.7619 12.4982 19.8866 12.6852 19.7619 12.7475L13.8389 18.2964C13.6519 18.4835 13.4648 18.7328 13.4648 19.0446L13.2778 20.5409C13.2778 20.7279 12.9661 20.7903 12.9037 20.5409L12.1555 17.7976C11.9685 17.4859 12.0932 17.1118 12.405 16.9871Z" fill="white"/>
</svg>
